<?xml version="1.0" encoding="utf-8"?>
<!-- Generator: Adobe Illustrator 25.0.0, SVG Export Plug-In . SVG Version: 6.00 Build 0)  -->
<svg version="1.1" id="Layer_1" focusable="false" xmlns="http://www.w3.org/2000/svg" xmlns:xlink="http://www.w3.org/1999/xlink"
	 x="0px" y="0px" viewBox="0 0 20 20" style="enable-background:new 0 0 20 20;" xml:space="preserve">
<style type="text/css">
	.st0{fill:#FFFFFF;}
</style>
<path class="st0" d="M5.3,5.4C4.5,5.6,3.9,6.2,3.6,7L0,18l0.6,0.6l5.9-5.9c-0.1-0.2-0.2-0.5-0.2-0.8c0-1,0.8-1.9,1.9-1.9
	s1.9,0.8,1.9,1.9s-0.8,1.9-1.9,1.9c-0.3,0-0.6-0.1-0.8-0.2l-5.9,5.9L2,20L13,16.4c0.8-0.3,1.4-0.9,1.6-1.7l1.7-5.9l-5-5L5.3,5.4
	L5.3,5.4z M19.4,2.9l-2.3-2.3c-0.7-0.7-1.9-0.7-2.7,0l-2.2,2.2l5,5l2.2-2.2C20.2,4.8,20.2,3.6,19.4,2.9z"/>
</svg>
