<?xml version="1.0" encoding="utf-8"?>
<!-- Generator: Adobe Illustrator 24.2.3, SVG Export Plug-In . SVG Version: 6.00 Build 0)  -->
<svg version="1.1" id="Layer_1" focusable="false" xmlns="http://www.w3.org/2000/svg" xmlns:xlink="http://www.w3.org/1999/xlink"
	 x="0px" y="0px" viewBox="0 0 512 512" style="enable-background:new 0 0 512 512;" xml:space="preserve">
<style type="text/css">
	.st0{fill:#FFFFFF;}
</style>
<path class="st0" d="M136.6,138.8c-20.4,5.8-36.6,21.2-43.3,41.3L0,460l14.7,14.7l150.1-150.1c-3-6.3-4.8-13.2-4.8-20.6
	c0-26.5,21.5-48,48-48s48,21.5,48,48s-21.5,48-48,48c-7.4,0-14.3-1.8-20.6-4.8L37.3,497.3L52,512l279.9-93.3
	c20.1-6.7,35.6-22.9,41.4-43.3L416,224L288,96L136.6,138.8L136.6,138.8z M497.9,74.2l-60.1-60.1c-18.8-18.8-49.2-18.8-67.9,0
	l-56.5,56.5l128,128l56.5-56.6C516.7,123.3,516.7,92.9,497.9,74.2z"/>
</svg>
