<?xml version="1.0" encoding="utf-8"?>
<!-- Generator: Adobe Illustrator 25.0.0, SVG Export Plug-In . SVG Version: 6.00 Build 0)  -->
<svg version="1.1" id="Layer_1" focusable="false" xmlns="http://www.w3.org/2000/svg" xmlns:xlink="http://www.w3.org/1999/xlink"
	 x="0px" y="0px" viewBox="0 0 20 20" style="enable-background:new 0 0 20 20;" xml:space="preserve">
<style type="text/css">
	.st0{fill:#FFFFFF;}
</style>
<path class="st0" d="M8,0.2C4.1,1,1,4.1,0.2,7.9c-1.4,7.3,5.1,12.8,10.1,12c1.6-0.3,2.4-2.1,1.7-3.6c-0.9-1.8,0.4-3.8,2.4-3.8h3.1
	c1.4,0,2.5-1.2,2.5-2.6C20,3.8,14.4-1,8,0.2z M3.7,12.5c-0.7,0-1.3-0.6-1.3-1.3c0-0.7,0.6-1.3,1.3-1.3S5,10.6,5,11.3
	C5,11.9,4.4,12.5,3.7,12.5z M5,7.5c-0.7,0-1.3-0.6-1.3-1.3S4.3,5,5,5s1.3,0.6,1.3,1.3S5.7,7.5,5,7.5z M10,5C9.3,5,8.7,4.4,8.7,3.8
	S9.3,2.5,10,2.5c0.7,0,1.3,0.6,1.3,1.3S10.7,5,10,5z M15,7.5c-0.7,0-1.3-0.6-1.3-1.3S14.3,5,15,5s1.3,0.6,1.3,1.3S15.7,7.5,15,7.5z"
	/>
</svg>
