<?xml version="1.0" encoding="utf-8"?>
<!-- Generator: Adobe Illustrator 24.2.3, SVG Export Plug-In . SVG Version: 6.00 Build 0)  -->
<svg version="1.1" id="Layer_1" xmlns="http://www.w3.org/2000/svg" xmlns:xlink="http://www.w3.org/1999/xlink" x="0px" y="0px"
	 viewBox="0 0 600 600" style="enable-background:new 0 0 600 600;" xml:space="preserve">
<style type="text/css">
	.st0{fill:#FFFFFF;}
</style>
<g>
	<path class="st0" d="M300,54.1c80.1,0,89.6,0.3,121.2,1.7c29.2,1.3,45.1,6.2,55.7,10.3c14,5.4,24,11.9,34.5,22.4s17,20.5,22.4,34.5
		c4.1,10.6,9,26.5,10.3,55.7c1.4,31.6,1.7,41.1,1.7,121.2s-0.3,89.6-1.7,121.2c-1.3,29.2-6.2,45.1-10.3,55.7
		c-5.4,14-11.9,24-22.4,34.5c-10.5,10.5-20.5,17-34.5,22.4c-10.6,4.1-26.5,9-55.7,10.3c-31.6,1.4-41.1,1.7-121.2,1.7
		s-89.6-0.3-121.2-1.7c-29.2-1.3-45.1-6.2-55.7-10.3c-14-5.4-24-11.9-34.5-22.4c-10.5-10.5-17-20.5-22.4-34.5
		c-4.1-10.6-9-26.5-10.3-55.7c-1.4-31.6-1.7-41.1-1.7-121.2s0.3-89.6,1.7-121.2c1.3-29.2,6.2-45.1,10.3-55.7
		c5.4-14,11.9-24,22.4-34.5s20.5-17,34.5-22.4c10.6-4.1,26.5-9,55.7-10.3C210.4,54.4,219.9,54.1,300,54.1 M300,0
		c-81.5,0-91.7,0.3-123.7,1.8c-31.9,1.5-53.7,6.5-72.8,13.9C83.8,23.4,67,33.7,50.4,50.4s-26.9,33.4-34.6,53.1
		c-7.4,19.1-12.5,40.9-13.9,72.8C0.3,208.3,0,218.5,0,300s0.3,91.7,1.8,123.7c1.5,31.9,6.5,53.7,13.9,72.8
		c7.7,19.7,17.9,36.5,34.6,53.1c16.7,16.7,33.4,26.9,53.1,34.6c19.1,7.4,40.9,12.5,72.8,13.9c32,1.5,42.2,1.8,123.7,1.8
		s91.7-0.3,123.7-1.8c31.9-1.5,53.7-6.5,72.8-13.9c19.7-7.7,36.5-17.9,53.1-34.6c16.7-16.7,26.9-33.4,34.6-53.1
		c7.4-19.1,12.5-40.9,13.9-72.8c1.5-32,1.8-42.2,1.8-123.7s-0.3-91.7-1.8-123.7c-1.5-31.9-6.5-53.7-13.9-72.8
		c-7.7-19.7-17.9-36.5-34.6-53.1s-33.4-26.9-53.1-34.6c-19.1-7.4-40.9-12.5-72.8-13.9C391.7,0.3,381.5,0,300,0z M300,145.9
		c-85.1,0-154.1,69-154.1,154.1s69,154.1,154.1,154.1s154.1-69,154.1-154.1S385.1,145.9,300,145.9z M300,400
		c-55.2,0-100-44.8-100-100s44.8-100,100-100s100,44.8,100,100S355.2,400,300,400z M496.1,139.9c0,19.9-16.1,36-36,36
		c-19.9,0-36-16.1-36-36c0-19.9,16.1-36,36-36C480,103.9,496.1,120,496.1,139.9z"/>
</g>
</svg>
