<?xml version="1.0" encoding="utf-8"?>
<!-- Generator: Adobe Illustrator 25.0.0, SVG Export Plug-In . SVG Version: 6.00 Build 0)  -->
<svg version="1.1" id="Layer_1" xmlns="http://www.w3.org/2000/svg" xmlns:xlink="http://www.w3.org/1999/xlink" x="0px" y="0px"
	 viewBox="0 0 20 19.1" style="enable-background:new 0 0 20 19.1;" xml:space="preserve">
<style type="text/css">
	.st0{fill:#FFFFFF;}
</style>
<path class="st0" d="M4.2,3.8c-0.4,0.4-1,0.6-1.8,0.6h0c-0.7,0-1.3-0.2-1.7-0.6S0,2.9,0,2.2c0-0.6,0.2-1.2,0.7-1.6
	C1.1,0.2,1.7,0,2.4,0c0.7,0,1.3,0.2,1.7,0.6c0.4,0.4,0.7,1,0.7,1.6C4.8,2.9,4.6,3.4,4.2,3.8z M4.5,19.1H0.2V6.2h4.3L4.5,19.1
	L4.5,19.1z M20,19.1h-4.3v-6.9c0-0.9-0.2-1.6-0.5-2.1c-0.4-0.5-0.9-0.8-1.6-0.8c-0.5,0-1,0.1-1.4,0.4s-0.6,0.7-0.8,1.1
	c-0.1,0.3-0.1,0.6-0.1,1.1v7.2H6.9c0-3.5,0-6.3,0-8.4s0-3.4,0-3.9l0-0.6h4.3v1.9h0c0.2-0.3,0.4-0.5,0.5-0.7c0.2-0.2,0.4-0.4,0.7-0.7
	s0.7-0.4,1.1-0.6s0.9-0.2,1.5-0.2c1.5,0,2.7,0.5,3.6,1.5c0.9,1,1.4,2.4,1.4,4.3V19.1z"/>
</svg>
