<?xml version="1.0" encoding="utf-8"?>
<!-- Generator: Adobe Illustrator 24.2.3, SVG Export Plug-In . SVG Version: 6.00 Build 0)  -->
<svg version="1.1" id="Layer_1" xmlns="http://www.w3.org/2000/svg" xmlns:xlink="http://www.w3.org/1999/xlink" x="0px" y="0px"
	 viewBox="0 0 600 573.5" style="enable-background:new 0 0 600 573.5;" xml:space="preserve">
<style type="text/css">
	.st0{fill:#FFFFFF;}
</style>
<path class="st0" d="M124.8,114.5c-13.4,12.8-31.1,19.1-53,19.1h-0.8c-21.4,0-38.5-6.4-51.5-19.1S0,85.8,0,66.8
	C0,47.6,6.7,31.6,20.1,19C33.5,6.3,51,0,72.7,0c21.6,0,38.9,6.3,51.9,19c13,12.6,19.6,28.6,19.9,47.8
	C144.8,85.8,138.2,101.7,124.8,114.5z M136.3,573.5H7.4V186.3h128.9V573.5z M600,573.5H471.5v-207c0-27.4-5.2-48.8-15.8-64.3
	c-10.5-15.5-27-23.2-49.4-23.2c-16.4,0-30.2,4.5-41.2,13.5c-11,9-19.3,20.1-24.8,33.4c-2.9,7.8-4.3,18.4-4.3,31.6v216H207.4
	c0.5-103.9,0.8-188.2,0.8-252.8c0-64.6-0.1-103.1-0.4-115.6l-0.4-18.8h128.5v56.3h-0.8c5.2-8.3,10.6-15.6,16.1-21.9
	c5.5-6.2,12.8-13,22-20.3c9.2-7.3,20.6-13,34-17c13.4-4,28.3-6,44.7-6c44.5,0,80.4,14.8,107.5,44.3c27.1,29.6,40.6,72.8,40.6,129.9
	V573.5z"/>
</svg>
