<?xml version="1.0" encoding="utf-8"?>
<!-- Generator: Adobe Illustrator 24.2.3, SVG Export Plug-In . SVG Version: 6.00 Build 0)  -->
<svg version="1.1" id="Layer_1" xmlns="http://www.w3.org/2000/svg" xmlns:xlink="http://www.w3.org/1999/xlink" x="0px" y="0px"
	 viewBox="0 0 280.2 273.7" style="enable-background:new 0 0 280.2 273.7;" xml:space="preserve">
<style type="text/css">
	.st0{fill:#FFFFFF;}
</style>
<g>
	<path class="st0" d="M97.2,237.4l12.7,12.8c6.5,0.2,13.2,0.3,20,0.4L113,231.9C107.6,233.6,102.3,235.4,97.2,237.4z"/>
	<path class="st0" d="M158.2,226.7c-4.7-1.3-10.2-1.5-16.2-1l23.7,24.6c3.3-0.1,6.5-0.2,9.6-0.3c1.1-2.8,2.1-7,0.6-11.2
		C173.7,233.4,167.8,229.3,158.2,226.7z"/>
	<path class="st0" d="M118.7,230.2l18.4,20.4c7.1,0,14.3,0,21.2-0.2l-23-23.9C129.9,227.3,124.3,228.6,118.7,230.2z"/>
	<path class="st0" d="M72.2,248c7.9,0.8,18.3,1.4,29.9,1.9l-10.3-10.4C84.2,242.5,77.4,245.6,72.2,248z"/>
	<path class="st0" d="M201.6,69.2c0.8,0.3,1.6,0.5,2.4,0.8l1.2,0.4c0.4,0.1,0.8,0.3,1.2,0.4c0.8,0.3,1.6,0.5,2.5,0.8
		c0.8,0.3,1.6,0.5,2.5,0.8c1.7,0.5,3.3,1,5.1,1.4c1.7,0.4,3.4,0.9,5.3,1.2c-0.6-0.7-1.3-1.3-2-1.9c-0.7-0.6-1.4-1.2-2.1-1.7
		c-1.5-1-3-2.1-4.5-2.9c-0.8-0.4-1.6-0.9-2.4-1.3c-0.8-0.4-1.6-0.8-2.4-1.1c-1.6-0.7-3.3-1.3-5-1.9c-3.4-1.1-6.9-1.9-10.5-2.4
		c-0.9-0.1-1.8-0.2-2.7-0.2c-0.9-0.1-1.8-0.1-2.7-0.1c-1.8,0-3.6,0.2-5.4,0.6c3.4,1.4,6.6,2.6,9.9,3.8
		C195.1,67,198.3,68.1,201.6,69.2z"/>
	<path class="st0" d="M240.7,150.4l-0.9,40c0,2.3-1.1,4.5-2.9,6c-1.8,1.5-4.2,2.1-6.5,1.7l-8.1-1.4c-4.8-0.8-8.2-5-8.2-9.8v-36.6
		c0-4.4-2.1-8.5-5.7-11l-26.9-18.9c-4.5-3.4-7.2-8.6-7.4-14.2l-1-32c-0.1-2.8-0.9-4.9-2.7-6.5c-2.6-2.4-8.6-5.2-22.9-4.6
		c-18.4,0.8-75.2,13.3-99.9,20.4c-5.8,1.7-24.6,9.4-24.6,39.3l0.3,23.8l25.3,10.7c1.3,0.6,2.7,0.5,3.9-0.1c1.2-0.7,2-1.8,2.2-3.2
		c0.3-2.2,2.4-3.7,4.6-3.4c2.2,0.3,3.7,2.4,3.4,4.6c-0.6,3.9-2.9,7.3-6.4,9.1c-1.6,0.9-3.4,1.4-5.1,1.5c0.8,2.3,1.4,4.9,1.6,7.7
		l-10.2,6.7l9.3,5.2c-2.1,8.6-7.2,14.6-12.8,14.3c-7-0.4-12.2-10.4-11.5-22.5c0.4-7.3,2.8-13.6,6.2-17.4l-10.3-4.3l0.6,55.9
		c0,11,3.6,19.1,10.9,24.9c7.4,5.8,17.8,8.5,26,10.2c0.4,0.1,0.9,0.2,1.4,0.3c14.3-7.2,68.7-32.9,97.1-25.2
		c11.4,3.1,18.6,8.2,21.3,15.4c1.8,4.7,1.2,9.2,0.2,12.7c12.3-0.7,22.5-1.7,28.8-3.2c16.1-3.8,26-9.7,31.1-18.6
		c4.6-8,5.5-17.8,6.2-30.9l0,0c0.1-1.4,0.9-2.7,2.2-3.3c6.4-3.2,7.7-12.3,7.7-19.3C257.1,159.7,249.4,152.2,240.7,150.4z M171.3,135
		l-20.6,8.5c0.1,0,0.2,0.1,0.3,0.1c6.3,2.4,10.9,7.3,13.2,13.2l-16.8,11.1l16,8.9c-5.4,11.2-18.2,16.8-29.6,12.5
		c-12.1-4.5-18-18.5-13.2-31.1c0.4-1,0.8-1.9,1.3-2.8l-10.9,4.5c-1.5,0.6-3.2,1-4.8,1c-2.2,0-4.4-0.6-6.4-1.8c-3.4-2-5.6-5.5-6-9.4
		c-0.2-2.2,1.4-4.2,3.6-4.4c2.2-0.2,4.2,1.4,4.4,3.6c0.1,1.4,0.9,2.6,2.1,3.3c1.2,0.7,2.6,0.8,3.9,0.3l60.4-25
		c2.1-0.9,4.4,0.1,5.3,2.2C174.4,131.8,173.4,134.1,171.3,135z M188.8,230.8c-0.2,0.1-0.4,0.1-0.7,0.1c-1.2,0-2.3-0.8-2.6-2
		c-0.9-3.5-3.6-6-5.7-7.5c-2.4-1.7-4.6-2.5-4.6-2.6c-1.4-0.5-2.1-2.1-1.6-3.5c0.5-1.4,2.1-2.1,3.5-1.6c0.5,0.2,11.2,4.3,13.6,13.8
		C191.1,229,190.2,230.5,188.8,230.8z M236.2,207.8c-0.3,2-2,3.3-4,3.3c-0.2,0-0.5,0-0.7-0.1l-14.1-2.4c-2.2-0.4-3.7-2.5-3.3-4.7
		c0.4-2.2,2.5-3.7,4.7-3.3l14.1,2.4C235.1,203.6,236.5,205.6,236.2,207.8z"/>
	<path d="M258.2,152.3c-0.8-1.1-1.7-2-2.6-2.9c-0.7-11.5-2.3-34.7-4-42.8c-2.3-11-10.9-21.4-10.9-21.4
		c-15.8-42.9-81.9-51.4-95.9-51.4c-13.1,0-47.1-28.7-88.7-15.1C18.5,31,24.7,79.2,26.2,88.2c-1.7,2-3.2,4.3-4.6,6.7
		c-5.5,10-6.7,20.7-6.7,28l1,88.5c0,13.4,4.7,23.9,14.1,31.2c8.7,6.8,20.3,9.9,29.3,11.8c12.5,2.6,47,4.3,80.7,4.3
		c29.4,0,58.3-1.3,71.6-4.5c18.4-4.4,29.9-11.5,36.2-22.4c5.6-9.6,6.6-21.5,7.2-32.3c6.6-4.5,10.1-13.1,10.1-25.3
		C265.2,165.9,262.7,158.1,258.2,152.3z M187.3,61.5c0.9,0,1.8,0,2.7,0.1c0.9,0,1.8,0.1,2.7,0.2c3.6,0.4,7.1,1.2,10.5,2.4
		c1.7,0.6,3.4,1.2,5,1.9c0.8,0.4,1.6,0.7,2.4,1.1c0.8,0.4,1.6,0.8,2.4,1.3c1.6,0.9,3.1,1.9,4.5,2.9c0.7,0.5,1.4,1.1,2.1,1.7
		c0.7,0.6,1.4,1.2,2,1.9c-1.8-0.3-3.6-0.7-5.3-1.2c-1.7-0.4-3.4-1-5.1-1.4c-0.8-0.2-1.7-0.5-2.5-0.8c-0.8-0.2-1.7-0.5-2.5-0.8
		c-0.4-0.1-0.8-0.3-1.2-0.4L204,70c-0.8-0.3-1.6-0.6-2.4-0.8c-3.3-1.1-6.5-2.2-9.8-3.3c-3.3-1.2-6.5-2.4-9.9-3.8
		C183.7,61.6,185.5,61.5,187.3,61.5z M72.2,248c5.2-2.4,12-5.5,19.6-8.5l10.3,10.4C90.5,249.4,80.1,248.8,72.2,248z M109.9,250.2
		l-12.7-12.8c5.1-1.9,10.4-3.8,15.8-5.5l16.9,18.7C123.1,250.5,116.4,250.3,109.9,250.2z M137.2,250.6l-18.4-20.4
		c5.6-1.6,11.2-2.9,16.6-3.7l23,23.9C151.4,250.6,144.3,250.6,137.2,250.6z M175.2,249.9c-3.1,0.1-6.3,0.3-9.6,0.3L142,225.7
		c6-0.5,11.5-0.2,16.2,1c9.6,2.6,15.6,6.6,17.6,12C177.4,242.9,176.3,247.1,175.2,249.9z M249.4,193.5c-1.3,0.7-2.1,2-2.2,3.3l0,0
		c-0.7,13.1-1.5,22.9-6.2,30.9c-5.2,8.9-15.1,14.8-31.1,18.6c-6.3,1.5-16.5,2.6-28.8,3.2c1-3.5,1.6-8.1-0.2-12.7
		c-2.7-7.1-9.8-12.3-21.3-15.4c-28.5-7.7-82.9,18-97.1,25.2c-0.5-0.1-0.9-0.2-1.4-0.3c-8.2-1.7-18.6-4.4-26-10.2
		c-7.4-5.7-10.9-13.9-10.9-24.9l-0.6-55.9l10.3,4.3c-3.4,3.8-5.8,10.1-6.2,17.4c-0.6,12,4.5,22.1,11.5,22.5
		c5.6,0.3,10.7-5.7,12.8-14.3l-9.3-5.2l10.2-6.7c-0.2-2.8-0.8-5.4-1.6-7.7c1.8-0.1,3.5-0.6,5.1-1.5c3.5-1.9,5.8-5.2,6.4-9.1
		c0.3-2.2-1.2-4.2-3.4-4.6c-2.2-0.3-4.2,1.2-4.6,3.4c-0.2,1.4-1,2.5-2.2,3.2c-1.2,0.7-2.6,0.7-3.9,0.1l-25.3-10.7l-0.3-23.8
		c0-29.9,18.8-37.6,24.6-39.3c24.6-7.1,81.5-19.6,99.9-20.4c14.2-0.6,20.3,2.2,22.9,4.6c1.7,1.6,2.6,3.7,2.7,6.5l1,32
		c0.2,5.6,2.9,10.8,7.4,14.2l26.9,18.9c3.6,2.5,5.7,6.7,5.7,11V187c0,4.8,3.5,9,8.2,9.8l8.1,1.4c2.3,0.4,4.7-0.2,6.5-1.7
		c1.8-1.5,2.9-3.7,2.9-6l0.9-40c8.7,1.8,16.5,9.3,16.5,23.8C257.1,181.3,255.8,190.4,249.4,193.5z"/>
	<path d="M232.9,203.2l-14.1-2.4c-2.2-0.4-4.3,1.1-4.7,3.3c-0.4,2.2,1.1,4.3,3.3,4.7l14.1,2.4c0.2,0,0.5,0.1,0.7,0.1
		c1.9,0,3.6-1.4,4-3.3C236.5,205.6,235.1,203.6,232.9,203.2z"/>
	<path d="M173.5,129.7c-0.8-2.1-3.2-3-5.3-2.2l-60.4,25c-1.3,0.5-2.7,0.4-3.9-0.3c-1.2-0.7-2-1.9-2.1-3.3c-0.2-2.2-2.2-3.8-4.4-3.6
		c-2.2,0.2-3.8,2.2-3.6,4.4c0.4,3.9,2.6,7.4,6,9.4c2,1.2,4.2,1.8,6.4,1.8c1.6,0,3.2-0.3,4.8-1l10.9-4.5c-0.5,0.9-0.9,1.8-1.3,2.8
		c-4.8,12.6,1.1,26.6,13.2,31.1c11.4,4.3,24.1-1.3,29.6-12.5l-16-8.9l16.8-11.1c-2.3-5.9-6.9-10.9-13.2-13.2c-0.1,0-0.2-0.1-0.3-0.1
		l20.6-8.5C173.4,134.1,174.4,131.8,173.5,129.7z"/>
	<path d="M177.1,213.8c-1.4-0.5-2.9,0.2-3.5,1.6c-0.5,1.4,0.2,2.9,1.6,3.5c0,0,2.2,0.9,4.6,2.6c2.1,1.5,4.8,4.1,5.7,7.5
		c0.3,1.2,1.4,2,2.6,2c0.2,0,0.4,0,0.7-0.1c1.4-0.4,2.3-1.8,1.9-3.3C188.3,218.1,177.5,214,177.1,213.8z"/>
</g>
<g>
	<path class="st0" d="M79.1,15c30.9,0,55.1,18.8,65.7,18.8c13.9,0,80.1,8.4,95.9,51.4c0,0,8.6,10.4,10.9,21.4
		c1.7,8.2,3.3,31.3,4,42.8c0.9,0.9,1.8,1.9,2.6,2.9c4.5,5.8,7,13.6,7,22c0,12.1-3.5,20.8-10.1,25.3c-0.6,10.8-1.5,22.7-7.2,32.3
		c-6.4,10.9-17.9,18-36.2,22.4c-13.3,3.2-42.1,4.5-71.6,4.5c-33.8,0-68.2-1.7-80.7-4.3c-9.1-1.9-20.6-5-29.3-11.8
		c-9.3-7.3-14.1-17.8-14.1-31.2l-1-88.5c0-7.3,1.2-18,6.7-28c1.3-2.4,2.9-4.7,4.6-6.7c-1.5-9-7.7-57.2,29.9-69.5
		C64.1,16.1,71.8,15,79.1,15 M79.1,0c-9.4,0-18.7,1.5-27.7,4.4c-21.1,6.9-34.8,23.3-39.7,47.3c-2.5,12.6-2.1,24.6-1.2,32.5
		c-0.7,1.1-1.4,2.3-2,3.4c-7,12.8-8.5,26.2-8.5,35.3v0.1l0,0.1l1,88.4c0,18,6.9,32.8,19.8,42.9c11.2,8.7,24.8,12.4,35.5,14.6
		c15.3,3.2,53.2,4.7,83.8,4.7c20.4,0,57.2-0.6,75-4.9c22.3-5.3,37.3-14.9,45.7-29.4c6-10.3,7.9-21.7,8.8-32.8
		c5.6-6.2,10.5-16.3,10.5-32.3c0-11.5-3.5-22.5-9.9-30.9c-1-14.9-2.3-32.2-3.9-39.8c-2.4-11.4-9.2-21.5-12.4-25.8
		c-8.7-21.2-28.2-37.9-56.6-48.4c-22.2-8.2-43.5-10.5-52.1-10.5c-2-0.4-7.3-2.8-11.3-4.5C121.2,8.6,101.8,0,79.1,0L79.1,0z"/>
</g>
</svg>
